<svg xmlns="http://www.w3.org/2000/svg" data-name="S_Slice_18_N@2x" height="36" id="S_Slice_18_N_2x" viewBox="0 0 36 36" width="36">
  <defs>
    <style>
      .fill {
        fill: #6e6e6e;
      }

      
    </style>
  </defs>
  <path class="fill" d="M34.242,8.868,25.054,1.636a1,1,0,0,0-1.4.159L19.149,8.089a.989.989,0,0,0,.138,1.293v.029l-.679.858a7.482,7.482,0,0,1-1.027,1.063l-2.808,2.384a7.519,7.519,0,0,0-1.309,1.445L.063,34.486,23.034,24.259l3.507-6.021a7.47,7.47,0,0,1,.6-.878l.9-1.133s.138.106.19.148a1.021,1.021,0,0,0,1.424-.161c.5-.627,4.754-5.935,4.754-5.935A1,1,0,0,0,34.242,8.868Zm-8.671,7.251a9.6,9.6,0,0,0-.758,1.112l-3.182,5.463L5.78,29.751,15.108,16.3a5.517,5.517,0,0,1,.96-1.058l2.807-2.384a9.469,9.469,0,0,0,1.3-1.347l.679-.858,5.613,4.334Z" />
  </svg>